<svg xmlns="http://www.w3.org/2000/svg" viewBox="0 0 24 24" width="24" height="24">
  <path fill="none" d="M0 0h24v24H0z"></path>
  <path fill="currentColor" d="M12 2.2c3.18 0 3.584.012 4.85.07 1.17.054 1.946.25 2.395.415a4.92 4.92 0 0 1 1.785 1.018c.474.474.792.92 1.018 1.785.165.449.36 1.225.415 2.395.058 1.266.07 1.67.07 4.85s-.012 3.584-.07 4.85c-.054 1.17-.25 1.946-.415 2.395a4.92 4.92 0 0 1-1.018 1.785c-.474.474-.92.792-1.785 1.018-.449.165-1.225.36-2.395.415-1.266.058-1.67.07-4.85.07s-3.584-.012-4.85-.07c-1.17-.054-1.946-.25-2.395-.415a4.92 4.92 0 0 1-1.785-1.018c-.474-.474-.792-.92-1.018-1.785-.165-.449-.36-1.225-.415-2.395C2.212 15.584 2.2 15.18 2.2 12s.012-3.584.07-4.85c.054-1.17.25-1.946.415-2.395a4.92 4.92 0 0 1 1.018-1.785c.474-.474.92-.792 1.785-1.018.449-.165 1.225-.36 2.395-.415C8.416 2.212 8.82 2.2 12 2.2zm0-1.2C8.735 1 8.315 1.012 7.048 1.07 5.772 1.128 4.8 1.35 3.99 1.615a6.12 6.12 0 0 0-2.19 1.25 6.12 6.12 0 0 0-1.25 2.19C.35 5.2.128 6.173.07 7.448.012 8.714 0 9.135 0 12c0 2.865.012 3.286.07 4.552.058 1.276.28 2.248.565 2.91.266.83.612 1.52 1.25 2.19a6.12 6.12 0 0 0 2.19 1.25c.83.266 1.52.612 2.19 1.25.662.285 1.634.507 2.91.565C8.714 23.988 9.135 24 12 24c2.865 0 3.286-.012 4.552-.07 1.276-.058 2.248-.28 2.91-.565.83-.266 1.52-.612 2.19-1.25a6.12 6.12 0 0 0 1.25-2.19c.285-.662.507-1.634.565-2.91C23.988 15.286 24 14.865 24 12c0-2.865-.012-3.286-.07-4.552-.058-1.276-.28-2.248-.565-2.91a6.12 6.12 0 0 0-1.25-2.19c-.662-.285-1.634-.507-2.91-.565C15.286.012 14.865 0 12 0zM12 5.8a6.2 6.2 0 1 0 0 12.4 6.2 6.2 0 0 0 0-12.4zm0 1.2a5 5 0 1 1 0 10 5 5 0 0 1 0-10zm6.4-2.1a1.44 1.44 0 1 1 0 2.88 1.44 1.44 0 0 1 0-2.88z"></path>
</svg>
